# WaveFront *.obj file (generated by Autodesk ATF)

mtllib 8d51c78f-da52-408a-a065-85a592a925d2.mtl

g Body1

v 150.000000 15.000000 80.000000
v 155.000000 15.000000 80.000000
v 155.000000 6.000000 80.000000
v 150.000000 6.000000 80.000000
v 150.000000 16.000000 85.000000
v 150.000000 16.000000 5.000000
v 150.000000 15.000000 5.000000
v 150.000000 6.000000 5.000000
v 150.000000 5.000000 5.000000
v 150.000000 5.000000 85.000000
v 155.000000 0.000000 85.000000
v 155.000000 21.000000 85.000000
v 0.000000 21.000000 85.000000
v 0.000000 0.000000 85.000000
v 5.000000 5.000000 85.000000
v 5.000000 16.000000 85.000000
v 155.000000 6.000000 5.000000
v 0.000000 15.000000 80.000000
v 5.000000 15.000000 80.000000
v 5.000000 6.000000 80.000000
v 0.000000 6.000000 80.000000
v 5.000000 15.000000 5.000000
v 5.000000 16.000000 5.000000
v 5.000000 5.000000 5.000000
v 5.000000 6.000000 5.000000
v 15.000000 16.000000 80.000000
v 15.000000 21.000000 80.000000
v 140.000000 21.000000 80.000000
v 140.000000 16.000000 80.000000
v 15.000000 0.000000 80.000000
v 15.000000 5.000000 80.000000
v 140.000000 5.000000 80.000000
v 140.000000 0.000000 80.000000
v 15.000000 0.000000 5.000000
v 15.000000 5.000000 5.000000
v 155.000000 15.000000 5.000000
v 0.000000 15.000000 5.000000
v 0.000000 6.000000 5.000000
v 0.000000 21.000000 0.000000
v 0.000000 0.000000 0.000000
v 15.000000 16.000000 5.000000
v 15.000000 21.000000 5.000000
v 140.000002 21.000000 5.000000
v 140.000002 16.000000 5.000000
v 140.000002 5.000000 5.000000
v 140.000002 0.000000 5.000000
v 155.000000 21.000000 0.000000
v 155.000000 0.000000 0.000000
vt 0.500000 0.900000 0.000000
vt -0.000000 0.900000 0.000000
vt 0.500000 0.000000 0.000000
vt -0.000000 0.000000 0.000000
vt -1.600000 0.500000 0.000000
vt -1.500000 8.000000 0.000000
vt -1.600000 8.500000 0.000000
vt -0.600000 8.000000 0.000000
vt -0.500000 8.500000 0.000000
vt -0.500000 0.500000 0.000000
vt -0.600000 0.500000 0.000000
vt -1.500000 0.500000 0.000000
vt 7.750000 1.050000 0.000000
vt 7.250000 0.550000 0.000000
vt 7.750000 -1.050000 0.000000
vt 7.250000 -0.550000 0.000000
vt -7.250000 -0.550000 0.000000
vt -7.750000 1.050000 0.000000
vt -7.250000 0.550000 0.000000
vt -7.750000 -1.050000 0.000000
vt -3.500000 0.500000 0.000000
vt -3.000000 0.500000 0.000000
vt -3.500000 8.000000 0.000000
vt -3.000000 8.000000 0.000000
vt 0.500000 0.900000 0.000000
vt 0.000000 0.900000 0.000000
vt 0.500000 0.000000 0.000000
vt 0.000000 0.000000 0.000000
vt -0.600000 0.500000 0.000000
vt -0.500000 0.500000 0.000000
vt -0.600000 8.000000 0.000000
vt -0.500000 8.500000 0.000000
vt -1.500000 8.000000 0.000000
vt -1.600000 8.500000 0.000000
vt -1.600000 0.500000 0.000000
vt -1.500000 0.500000 0.000000
vt 0.000000 0.000000 0.000000
vt 0.500000 0.000000 0.000000
vt 0.000000 12.500000 0.000000
vt 0.500000 12.500000 0.000000
vt 0.000000 0.000000 0.000000
vt 0.500000 0.000000 0.000000
vt 0.000000 12.500000 0.000000
vt 0.500000 12.500000 0.000000
vt -0.500000 0.500000 0.000000
vt -0.000000 0.500000 0.000000
vt -0.500000 8.000000 0.000000
vt -0.000000 8.000000 0.000000
vt -15.500000 0.500000 0.000000
vt -15.000000 0.500000 0.000000
vt -15.500000 8.000000 0.000000
vt -15.000000 8.000000 0.000000
vt -0.500000 0.500000 0.000000
vt -0.000000 0.500000 0.000000
vt -0.500000 8.000000 0.000000
vt -0.000000 8.000000 0.000000
vt -18.500000 0.500000 0.000000
vt -18.000000 0.500000 0.000000
vt -18.500000 8.000000 0.000000
vt -18.000000 8.000000 0.000000
vt 2.100000 0.000000 0.000000
vt 2.100000 8.500000 0.000000
vt 1.500000 8.000000 0.000000
vt 0.000000 8.500000 0.000000
vt 0.600000 8.000000 0.000000
vt 0.000000 0.000000 0.000000
vt 0.600000 0.500000 0.000000
vt 1.500000 0.500000 0.000000
vt -2.100000 0.500000 0.000000
vt -1.600000 0.500000 0.000000
vt -2.100000 8.000000 0.000000
vt -1.600000 8.000000 0.000000
vt -0.500000 0.500000 0.000000
vt 0.000000 0.500000 0.000000
vt -0.500000 8.000000 0.000000
vt -0.000000 8.000000 0.000000
vt -2.100000 0.500000 0.000000
vt -1.600000 0.500000 0.000000
vt -2.100000 8.000000 0.000000
vt -1.600000 8.000000 0.000000
vt -1.500000 0.500000 0.000000
vt -0.500000 0.500000 0.000000
vt -1.500000 8.000000 0.000000
vt -0.500000 8.500000 0.000000
vt -15.000000 8.500000 0.000000
vt -14.000000 8.000000 0.000000
vt -15.000000 0.500000 0.000000
vt -14.000000 0.500000 0.000000
vt -7.250000 -0.550000 0.000000
vt -6.250000 -0.550000 0.000000
vt -7.250000 -0.450000 0.000000
vt -6.250000 0.550000 0.000000
vt -7.250000 0.450000 0.000000
vt -7.250000 0.550000 0.000000
vt -6.250000 -1.050000 0.000000
vt 6.250000 -1.050000 0.000000
vt 6.250000 -0.550000 0.000000
vt 6.250000 0.550000 0.000000
vt -6.250000 1.050000 0.000000
vt 6.250000 1.050000 0.000000
vt 7.250000 -0.550000 0.000000
vt 7.250000 -0.450000 0.000000
vt 7.250000 0.450000 0.000000
vt 7.750000 -0.450000 0.000000
vt 7.750000 0.450000 0.000000
vt 7.250000 0.550000 0.000000
vt -7.750000 0.450000 0.000000
vt -7.750000 -0.450000 0.000000
vt -14.000000 0.500000 0.000000
vt -14.000000 8.000000 0.000000
vt -15.000000 0.500000 0.000000
vt -15.000000 8.500000 0.000000
vt -0.500000 8.500000 0.000000
vt -1.500000 8.000000 0.000000
vt -0.500000 0.500000 0.000000
vt -1.500000 0.500000 0.000000
vt 14.000000 0.500000 0.000000
vt 15.500000 0.000000 0.000000
vt 14.000000 8.000000 0.000000
vt 15.500000 8.500000 0.000000
vt 0.000000 8.500000 0.000000
vt 0.000000 0.000000 0.000000
vt 1.500000 0.500000 0.000000
vt 1.500000 8.000000 0.000000
vt 1.500000 0.500000 0.000000
vt 2.100000 0.000000 0.000000
vt 1.500000 8.000000 0.000000
vt 2.100000 8.500000 0.000000
vt 0.600000 8.000000 0.000000
vt 0.000000 8.500000 0.000000
vt 0.000000 0.000000 0.000000
vt 0.600000 0.500000 0.000000
vt 0.000000 8.500000 0.000000
vt 1.500000 8.000000 0.000000
vt 15.500000 8.500000 0.000000
vt 14.000000 8.000000 0.000000
vt 14.000000 0.500000 0.000000
vt 0.000000 0.000000 0.000000
vt 1.500000 0.500000 0.000000
vt 15.500000 0.000000 0.000000
vt 7.750000 1.050000 0.000000
vt -7.750000 1.050000 0.000000
vt 7.750000 -1.050000 0.000000
vt -7.750000 -1.050000 0.000000
vn 0.000000 0.000000 -0.100000
vn 0.000000 0.000000 -0.100000
vn 0.000000 0.000000 -0.100000
vn 0.000000 0.000000 -0.100000
vn -0.100000 0.000000 0.000000
vn -0.100000 0.000000 0.000000
vn -0.100000 0.000000 0.000000
vn -0.100000 0.000000 0.000000
vn -0.100000 0.000000 0.000000
vn -0.100000 0.000000 0.000000
vn -0.100000 0.000000 0.000000
vn -0.100000 0.000000 0.000000
vn 0.000000 0.000000 0.100000
vn 0.000000 0.000000 0.100000
vn 0.000000 0.000000 0.100000
vn 0.000000 0.000000 0.100000
vn 0.000000 0.000000 0.100000
vn 0.000000 0.000000 0.100000
vn 0.000000 0.000000 0.100000
vn 0.000000 0.000000 0.100000
vn 0.000000 0.100000 0.000000
vn 0.000000 0.100000 0.000000
vn 0.000000 0.100000 0.000000
vn 0.000000 0.100000 0.000000
vn 0.000000 0.000000 -0.100000
vn 0.000000 0.000000 -0.100000
vn 0.000000 0.000000 -0.100000
vn 0.000000 0.000000 -0.100000
vn 0.100000 0.000000 0.000000
vn 0.100000 0.000000 0.000000
vn 0.100000 0.000000 0.000000
vn 0.100000 0.000000 0.000000
vn 0.100000 0.000000 0.000000
vn 0.100000 0.000000 0.000000
vn 0.100000 0.000000 0.000000
vn 0.100000 0.000000 0.000000
vn 0.000000 0.000000 -0.100000
vn 0.000000 0.000000 -0.100000
vn 0.000000 0.000000 -0.100000
vn 0.000000 0.000000 -0.100000
vn 0.000000 0.000000 -0.100000
vn 0.000000 0.000000 -0.100000
vn 0.000000 0.000000 -0.100000
vn 0.000000 0.000000 -0.100000
vn 0.100000 0.000000 0.000000
vn 0.100000 0.000000 0.000000
vn 0.100000 0.000000 0.000000
vn 0.100000 0.000000 0.000000
vn 0.000000 -0.100000 0.000000
vn 0.000000 -0.100000 0.000000
vn 0.000000 -0.100000 0.000000
vn 0.000000 -0.100000 0.000000
vn 0.000000 -0.100000 0.000000
vn 0.000000 -0.100000 0.000000
vn 0.000000 -0.100000 0.000000
vn 0.000000 -0.100000 0.000000
vn 0.000000 0.100000 0.000000
vn 0.000000 0.100000 0.000000
vn 0.000000 0.100000 0.000000
vn 0.000000 0.100000 0.000000
vn -0.100000 0.000000 0.000000
vn -0.100000 0.000000 0.000000
vn -0.100000 0.000000 0.000000
vn -0.100000 0.000000 0.000000
vn -0.100000 0.000000 0.000000
vn -0.100000 0.000000 0.000000
vn -0.100000 0.000000 0.000000
vn -0.100000 0.000000 0.000000
vn 0.100000 0.000000 0.000000
vn 0.100000 0.000000 0.000000
vn 0.100000 0.000000 0.000000
vn 0.100000 0.000000 0.000000
vn -0.100000 0.000000 0.000000
vn -0.100000 0.000000 0.000000
vn -0.100000 0.000000 0.000000
vn -0.100000 0.000000 0.000000
vn -0.100000 0.000000 0.000000
vn -0.100000 0.000000 0.000000
vn -0.100000 0.000000 0.000000
vn -0.100000 0.000000 0.000000
vn -0.000000 0.100000 -0.000000
vn -0.000000 0.100000 -0.000000
vn -0.000000 0.100000 -0.000000
vn -0.000000 0.100000 -0.000000
vn -0.000000 0.100000 -0.000000
vn -0.000000 0.100000 -0.000000
vn -0.000000 0.100000 -0.000000
vn -0.000000 0.100000 -0.000000
vn 0.000000 0.000000 0.100000
vn 0.000000 0.000000 0.100000
vn 0.000000 0.000000 0.100000
vn 0.000000 0.000000 0.100000
vn 0.000000 0.000000 0.100000
vn 0.000000 0.000000 0.100000
vn 0.000000 0.000000 0.100000
vn 0.000000 0.000000 0.100000
vn 0.000000 0.000000 0.100000
vn 0.000000 0.000000 0.100000
vn 0.000000 0.000000 0.100000
vn 0.000000 0.000000 0.100000
vn 0.000000 0.000000 0.100000
vn 0.000000 0.000000 0.100000
vn 0.000000 0.000000 0.100000
vn 0.000000 0.000000 0.100000
vn 0.000000 0.000000 0.100000
vn 0.000000 0.000000 0.100000
vn 0.000000 0.000000 0.100000
vn 0.000000 0.000000 0.100000
vn 0.000000 -0.100000 0.000000
vn 0.000000 -0.100000 0.000000
vn 0.000000 -0.100000 0.000000
vn 0.000000 -0.100000 0.000000
vn 0.000000 -0.100000 0.000000
vn 0.000000 -0.100000 0.000000
vn 0.000000 -0.100000 0.000000
vn 0.000000 -0.100000 0.000000
vn 0.000000 0.100000 0.000000
vn 0.000000 0.100000 0.000000
vn 0.000000 0.100000 0.000000
vn 0.000000 0.100000 0.000000
vn 0.000000 0.100000 0.000000
vn 0.000000 0.100000 0.000000
vn 0.000000 0.100000 0.000000
vn 0.000000 0.100000 0.000000
vn 0.100000 0.000000 0.000000
vn 0.100000 0.000000 0.000000
vn 0.100000 0.000000 0.000000
vn 0.100000 0.000000 0.000000
vn 0.100000 0.000000 0.000000
vn 0.100000 0.000000 0.000000
vn 0.100000 0.000000 0.000000
vn 0.100000 0.000000 0.000000
vn 0.000000 -0.100000 0.000000
vn 0.000000 -0.100000 0.000000
vn 0.000000 -0.100000 0.000000
vn 0.000000 -0.100000 0.000000
vn 0.000000 -0.100000 0.000000
vn 0.000000 -0.100000 0.000000
vn 0.000000 -0.100000 0.000000
vn 0.000000 -0.100000 0.000000
vn 0.000000 0.000000 -0.100000
vn 0.000000 0.000000 -0.100000
vn 0.000000 0.000000 -0.100000
vn 0.000000 0.000000 -0.100000
usemtl ABS_(White)
f 1/1/1 2/2/2 4/3/3
f 4/3/3 2/2/2 3/4/4
f 6/5/5 1/6/6 5/7/7
f 5/7/7 1/6/6 4/8/8
f 5/7/7 4/8/8 10/9/9
f 10/9/9 4/8/8 9/10/10
f 9/10/10 4/8/8 8/11/11
f 6/5/5 7/12/12 1/6/6
f 12/13/13 5/14/14 11/15/15
f 11/15/15 5/14/14 10/16/16
f 11/15/15 10/16/16 15/17/17
f 12/13/13 13/18/18 5/14/14
f 5/14/14 13/18/18 16/19/19
f 16/19/19 13/18/18 14/20/20
f 16/19/19 14/20/20 15/17/17
f 15/17/17 14/20/20 11/15/15
f 4/21/21 3/22/22 8/23/23
f 8/23/23 3/22/22 17/24/24
f 18/25/25 19/26/26 21/27/27
f 21/27/27 19/26/26 20/28/28
f 22/29/29 23/30/30 19/31/31
f 19/31/31 23/30/30 16/32/32
f 19/31/31 16/32/32 20/33/33
f 20/33/33 16/32/32 15/34/34
f 20/33/33 15/34/34 24/35/35
f 24/35/35 25/36/36 20/33/33
f 26/37/37 27/38/38 29/39/39
f 29/39/39 27/38/38 28/40/40
f 30/41/41 31/42/42 33/43/43
f 33/43/43 31/42/42 32/44/44
f 31/45/45 30/46/46 35/47/47
f 35/47/47 30/46/46 34/48/48
f 2/49/49 1/50/50 36/51/51
f 36/51/51 1/50/50 7/52/52
f 19/53/53 18/54/54 22/55/55
f 22/55/55 18/54/54 37/56/56
f 21/57/57 20/58/58 38/59/59
f 38/59/59 20/58/58 25/60/60
f 40/61/61 14/62/62 21/63/63
f 21/63/63 14/62/62 13/64/64
f 21/63/63 13/64/64 18/65/65
f 18/65/65 13/64/64 39/66/66
f 18/65/65 39/66/66 37/67/67
f 37/67/67 39/66/66 38/68/68
f 38/68/68 39/66/66 40/61/61
f 38/68/68 40/61/61 21/63/63
f 27/69/69 26/70/70 42/71/71
f 42/71/71 26/70/70 41/72/72
f 29/73/73 28/74/74 44/75/75
f 44/75/75 28/74/74 43/76/76
f 33/77/77 32/78/78 46/79/79
f 46/79/79 32/78/78 45/80/80
f 35/81/81 24/82/82 31/83/83
f 31/83/83 24/82/82 15/84/84
f 31/83/83 15/84/84 10/85/85
f 31/83/83 10/85/85 32/86/86
f 32/86/86 10/85/85 9/87/87
f 32/86/86 9/87/87 45/88/88
f 24/89/89 35/90/90 25/91/91
f 25/91/91 35/90/90 41/92/92
f 25/91/91 41/92/92 22/93/93
f 22/93/93 41/92/92 23/94/94
f 34/95/95 46/96/96 35/90/90
f 35/90/90 46/96/96 45/97/97
f 35/90/90 45/97/97 41/92/92
f 41/92/92 45/97/97 44/98/98
f 41/92/92 44/98/98 42/99/99
f 42/99/99 44/98/98 43/100/100
f 9/101/101 8/102/102 45/97/97
f 45/97/97 8/102/102 44/98/98
f 44/98/98 8/102/102 7/103/103
f 7/103/103 8/102/102 17/104/104
f 7/103/103 17/104/104 36/105/105
f 7/103/103 6/106/106 44/98/98
f 22/93/93 37/107/107 25/91/91
f 25/91/91 37/107/107 38/108/108
f 41/109/109 26/110/110 23/111/111
f 23/111/111 26/110/110 16/112/112
f 16/112/112 26/110/110 5/113/113
f 5/113/113 26/110/110 29/114/114
f 5/113/113 29/114/114 6/115/115
f 6/115/115 29/114/114 44/116/116
f 42/117/117 39/118/118 27/119/119
f 27/119/119 39/118/118 13/120/120
f 27/119/119 13/120/120 12/121/121
f 39/118/118 42/117/117 47/122/122
f 47/122/122 42/117/117 43/123/123
f 47/122/122 43/123/123 12/121/121
f 12/121/121 43/123/123 28/124/124
f 12/121/121 28/124/124 27/119/119
f 36/125/125 47/126/126 2/127/127
f 2/127/127 47/126/126 12/128/128
f 2/127/127 12/128/128 3/129/129
f 3/129/129 12/128/128 11/130/130
f 3/129/129 11/130/130 48/131/131
f 36/125/125 17/132/132 47/126/126
f 47/126/126 17/132/132 48/131/131
f 48/131/131 17/132/132 3/129/129
f 14/133/133 30/134/134 11/135/135
f 11/135/135 30/134/134 33/136/136
f 11/135/135 33/136/136 46/137/137
f 14/133/133 40/138/138 30/134/134
f 30/134/134 40/138/138 34/139/139
f 34/139/139 40/138/138 48/140/140
f 34/139/139 48/140/140 46/137/137
f 46/137/137 48/140/140 11/135/135
f 39/141/141 47/142/142 40/143/143
f 40/143/143 47/142/142 48/144/144
# 48 vertices
# 144 texture params
# 144 normals
# 108 facets

# 1 groups
